/* XPM */
static char *_999d41e900a4cabeb90847393e5da14TyymHh9cxFMGN1mM[] = {
/* columns rows colors chars-per-pixel */
"64 64 256 2 ",
"   c #0D0400",
".  c #0A0800",
"X  c #140800",
"o  c #191805",
"O  c #1C1B12",
"+  c #271B03",
"@  c #291507",
"#  c #1D2004",
"$  c #272705",
"%  c #352908",
"&  c #373807",
"*  c #282816",
"=  c #373818",
"-  c #2F330D",
";  c #383A21",
":  c #453B06",
">  c #433C19",
",  c #472C13",
"<  c #473423",
"1  c #3B4316",
"2  c #384309",
"3  c #296830",
"4  c #484706",
"5  c #534907",
"6  c #595708",
"7  c #464717",
"8  c #554B1B",
"9  c #4A591C",
"0  c #57591A",
"q  c #4E5104",
"w  c #645B19",
"e  c #674B1B",
"r  c #4D611D",
"t  c #58651D",
"y  c #5F6A0E",
"u  c #696B08",
"i  c #68691A",
"p  c #736C17",
"a  c #787718",
"s  c #6E7210",
"d  c #464621",
"f  c #4C5722",
"g  c #545D23",
"h  c #565926",
"j  c #584C34",
"k  c #6C5931",
"l  c #4E6324",
"z  c #546424",
"x  c #596525",
"c  c #5B6C25",
"v  c #5B642A",
"b  c #5C6D2A",
"n  c #556826",
"m  c #5E722B",
"M  c #5C7127",
"N  c #5C7030",
"B  c #636D24",
"V  c #666929",
"C  c #647324",
"Z  c #63732C",
"A  c #6D7C2C",
"S  c #6A7629",
"D  c #727C2C",
"F  c #777828",
"G  c #687733",
"H  c #767A36",
"J  c #706932",
"K  c #777145",
"L  c #606E48",
"P  c #397945",
"I  c #837D11",
"U  c #857C35",
"Y  c #847B29",
"T  c #887554",
"R  c #1C981B",
"E  c #34AA18",
"W  c #168E31",
"Q  c #0FAD33",
"!  c #2AB52D",
"~  c #2B9D21",
"^  c #7B851A",
"/  c #4EB514",
"(  c #6DB80E",
")  c #6C822B",
"_  c #74832C",
"`  c #7C8C2B",
"'  c #798628",
"]  c #6D8737",
"[  c #7D8A32",
"{  c #7A8534",
"}  c #7D922E",
"|  c #4CB82A",
" . c #70B723",
".. c #71C30B",
"X. c #66C425",
"o. c #02954D",
"O. c #019A4E",
"+. c #0A974C",
"@. c #18974B",
"#. c #019C54",
"$. c #029D59",
"%. c #069852",
"&. c #169B54",
"*. c #0D8E4F",
"=. c #26964A",
"-. c #34954B",
";. c #07A548",
":. c #03A055",
">. c #08A359",
",. c #14A358",
"<. c #16AB49",
"1. c #28AB56",
"2. c #4F984E",
"3. c #779043",
"4. c #50A657",
"5. c #70AA56",
"6. c #57B56B",
"7. c #72B064",
"8. c #5BD85F",
"9. c #72D956",
"0. c #5ACC6C",
"q. c #8D8E19",
"w. c #9AA419",
"e. c #ADB11C",
"r. c #AEB21A",
"t. c #868927",
"y. c #938C29",
"u. c #83932A",
"i. c #8C932B",
"p. c #899928",
"a. c #939B2B",
"s. c #9B9D2B",
"d. c #969827",
"f. c #838C34",
"g. c #868A38",
"h. c #879536",
"j. c #979935",
"k. c #938836",
"l. c #A49E29",
"z. c #A49C39",
"x. c #9BA32A",
"c. c #97A72A",
"v. c #9CA333",
"b. c #9AA33A",
"n. c #90AA2A",
"m. c #A4AB2C",
"M. c #A7A829",
"N. c #B4AD28",
"B. c #ACB32C",
"V. c #AAB327",
"C. c #BABD2C",
"Z. c #B5B827",
"A. c #A6A835",
"S. c #ACB534",
"D. c #B6B936",
"F. c #B1AC34",
"G. c #C4BA28",
"H. c #C5BD34",
"J. c #96CB16",
"K. c #87C70E",
"L. c #BBC51B",
"P. c #A1CF1C",
"I. c #92C92B",
"U. c #BBC528",
"Y. c #A7D328",
"T. c #ACCE31",
"R. c #BCC437",
"E. c #B8D738",
"W. c #ABD130",
"Q. c #C4D41B",
"!. c #C1CD1E",
"~. c #C2C42C",
"^. c #C5CA2C",
"/. c #C6C827",
"(. c #CCD32D",
"). c #CAD625",
"_. c #C4CB33",
"`. c #CBCD32",
"'. c #C7C839",
"]. c #D1CA3A",
"[. c #CDD233",
"{. c #C9D53B",
"}. c #D4DB34",
"|. c #D2D43B",
" X c #DCDE3B",
".X c #D4D93A",
"XX c #D2D72D",
"oX c #DCE13D",
"OX c #E1E23F",
"+X c #878A44",
"@X c #869946",
"#X c #989846",
"$X c #919354",
"%X c #A69953",
"&X c #85A855",
"*X c #91A84C",
"=X c #A8A648",
"-X c #B6B848",
";X c #B1AF51",
":X c #8F8B65",
">X c #84B164",
",X c #B5AE6E",
"<X c #A2996F",
"1X c #C5BB65",
"2X c #B9DB47",
"3X c #B5CD49",
"4X c #BCE24B",
"5X c #9EDF55",
"6X c #C7C945",
"7X c #C9DA46",
"8X c #DADD44",
"9X c #D5D948",
"0X c #D9DB57",
"qX c #CCCE53",
"wX c #E1DE50",
"eX c #CDE24C",
"rX c #C7E446",
"tX c #D4E44C",
"yX c #DCE24B",
"uX c #D8E446",
"iX c #D5E353",
"pX c #DBE454",
"aX c #DCE55A",
"sX c #DBE958",
"dX c #CAE553",
"fX c #E2E44C",
"gX c #E4E448",
"hX c #E2E55C",
"jX c #E3E95C",
"kX c #E4E856",
"lX c #EBF05E",
"zX c #DBDB65",
"xX c #CCCB6E",
"cX c #DAE462",
"vX c #CFF366",
"bX c #E4E463",
"nX c #E5EA62",
"mX c #EAEC64",
"MX c #E8E96B",
"NX c #EBEB76",
"BX c #ECF172",
"VX c #E1DB64",
"CX c #B6A994",
"ZX c #AB9D86",
"AX c #C5BA90",
"SX c #C1B7AD",
"DX c #D5CA95",
"FX c #E5D796",
"GX c #F5F486",
"HX c #ECE986",
"JX c #E8DBA9",
"KX c #F2E9AF",
"LX c #D6CEAE",
"PX c #FBF2CF",
"IX c #FFFDE9",
"UX c #E7DBC5",
/* pixels */
"o.o.o.o.o.O.O.#.%.@.3 = f H g.h.H 9 1 h G ) ` } } a.p.h.C 2 4 i -XNXGXNXNXMXhX0X0XbXMXMXaX9X}.).Q.Q.uXpXsXtXpXtXtXeX7X7X7X2XT.4X",
"o.o.o.o.o.O.#.#.#.@.3 - 1 g D { x 2 & h G A _ ` u.u.h.h.[ t 4 q j.VXNXNXNXNXnXaX0X0X0X0X0XtX.X).Q.Q..XpXpXsXiXtXtXtXeX7X7X2XW.rX",
"o.o.o.o.#.#.#.#.:.&.P 1 & 9 Z G 7 - 1 h Z Z ) ) [ f.h.h.f.S 7 4 t.0XNXNXNXMXmX0XaXhXnXaX0X6X^.L.Q.)..XtXiXaXiXiXtXtXeXrX7X7XT.rX",
"o.o.o.#.#.#.#.#.:.&.-.3 1 h V h = = 1 g v c M C _ [ ` } } D g & a qXMXMXMXMXmX0X0X0XhXhXpX9X{.U.!.)..XyXaXsXiXsXtXtXtXeX7X7XT.rX",
"*.o.o.#.#.#.$.$.$.&.-.P 9 v v d = * = f g r x c S _ _ [ ` _ v & u -X0XbXbXmXbX0X0X0X9X0X0X0X7X'.^.^._.7XjXaXsXpXtXtXtXeX7X7XW.rX",
"o.o.o.#.#.#.$.:.$.&.=.2.N G h 1 = * = d 9 9 g z c S D _ ) ) v 2 6 A.qXpXhXmXhX9X0X0X9X0X0XcX0X0X6XD.V.R.jXaXaXpXtXtXtXeX7XrXW.rX",
"o.o.#.O.#.#.#.:.:.+.=.2.] G h = * * * ; d f g x B C S Z Z Z h 7 q j.6X7X0XhX8X].8X0X0X0X0X0XqXqX=Xs.q.D.aXaXaXpXpXtXtXeXrXrXE.eX",
"o.o.O.O.#.#.#.$.>.&.-.2.] Z f = * O * ; d d h V S S C c x z f 7 4 j.3X'.6X0X8X{.9X9X6X-X=Xj.t.F a p u F.aXhXjXpXpXtXtXtXeXrXE.eX",
"O.O.#.O.#.#.$.:.:.,.2.5.] B f = O O * = = > V H D [ A t g 1 = 1 2 g.-XD.'.9X|.{.|.6XA.a F 6 5 0 5 w 5 j.6X0XjXpXpXpXtXeXeXeXE.tX",
"#.#.#.#.#.#.$.:.>.&.4.5.] B f = * O * * X   $ V +Xg.f.B 0 = $ = 7 g.=XB.R.|._.^.6XA.a w 7 : 0 0 w w 6 p s.zXhXpXpXpXtXeXeXdXE.tX",
"#.#.#.#.#.:.#.>.>.=.7.&XD V 8 - O O * X > T <XK V g.#Xf.7 - O o & H b.M.Z._.U._.-Xu 4 8 h & & 5 6 w 0 i y.zXnXhXpXpXtXtXeXeXE.tX",
"#.#.#.#.#.:.$.,.&.1.7.@XF V h = o * o d <XLXZXd T H g.#XV o * o $ H j.x.Z.C.Z.R.i.4 0 0 0 t D D i i 0 6 a -XMXhXpXpXiXiXeXeXE.eX",
"o.o.#.#.$.:.$.,.@.6.&Xg.S i V 0 - = - L AXZXX   j AX+X+XK . * o $ V h.v.B.Z.V.m.' y 0 D [ u.j.=Xb.t.a ' u ;XMXhXpXpXiXiXeXeXE.tX",
"o.#.#.#.#.:.>.&.=.7.&X{ V i S h 7 > > T AXT @ k   SXJXH +X$ o O X f f.v.B.Z.M.x.' { D f.u.u.a.c.v.v.v.t.u A.zXnXkXpXiXiXeXeXE.tX",
"o.%.#.:.:.:.>.@.4.>X@XF i S { S 8 > % J ZXT @ , < ZXIX<XH 7 . * X 7 f.A.m.B.x.i.[ { [ ` f.u.p.c.c.c.c.m.^ y.bXjXkXpXpXiXeXeXE.eX",
"o.O.#.:.:.:.,.@.7.&X[ p i f.j.h.V 4 7 8 T k % @ , ZXIXDXH V   * o 7 F v.m.m.a.' [ _ _ ' ` ` u.p.p.p.c.B.A.x.0XjXpXpXiXiXeXeX3XqX",
"O.#.#.#.:.>.+.=.7.&XA a t.A.m.A.i.6 4 J J w e k X AXPXJXg.V   * o 0 Y j.A.x.t.' A A S { _ ` u.p.p.n.c.v.x.-XcXnXiXsXiXsX7XcX;X#X",
"#.#.#.:.#.,.&.4.>X@X_ t.d.m.Z.D.S.^ : V U U U e @ JXPXKX%Xw   * & i t.j.M.s.u.' D B t C D ' ` p.n.n.c.x.m.R.0XnXaXiXsX7XsXqXi $X",
"#.#.#.#.#.,.@.6.>X[ ` a.M.B.U._.R.A.a : H #Xz.Y k.FXJXDXU 7   - V [ j.s.M.s.i.' D i t S A ' ' u.u.a.c.c.B.R.iXjXsXiXsXcXqX#X4 :X",
"#.#.#.:.>.&.=.7.&Xf.i.x.B.C.^.[.{.R.A.u & Y j.A.;X=X%X%XJ + o f F j.A.A.F.x.i.t.F i i D [ h.h.' u.p.p.c.m.R.iXjXcXcXcX3X=X+X7 :X",
"#.#.#.:.>.&.4.7.@Xu.a.M.C.U.^.[.|.|.R.M.s 4 u y.z.=X=X#Xh   4 f.a.A.D.6XD.M.a.t.F t S D g.j.b.v.^ u.p.c.c.S.eXaXzXqX-Xb.#X+Xo :X",
"#.#.#.%.,.@.4.&Xh.i.x.m.C.~.(.(..X8X`.C.A.i.u s I q.y.u & 0 f.v.S.D.qX0XR.w.s.i.S S h V H g.#X=Xa.^ u.a.c.V.7X0X3X-X=X=X#X+X% :X",
"#.#.#.:.>.@.5.&Xh.a.m.B.C.^.(.[.uX8X[.~.R.B.m.m.s.M.s.s.d.A.S.F.D.6XzXbX'.w.d.t.p V k j   8 4 h.=X' ' u.c.V.{.7X6X-X=X#Xg.g.7 :X",
"#.#.:.>.+.=.7.@Xf.a.x.B.U.U./.}.8X8X|.`.U.V.V.m.S.m.m.S.B.Z.C.C.U.'.bXNX'.e.s.a V K :X>   k ,XS S f.F ' c.V.U.{.R.S.A.j.j.#XB $X",
"#.#.#.,.&.4.5.@X` p.x.V.Z.~./.(..X8X[.~.Z.m.m.x.d.x.s.d.V.V.Z.U.U.6XMXMX'.Z.m.u 5 T T , <   LXKX& C ` ^ p.c.U.U.B.S.=X=X#Xf.2 3.",
"#.#.#.,.@.4.&Xf.' u.d.m.Z.U./.(.[.8X`.Z.m.v.p.p.d.d.a.d.M.Z.Z.Z.Z.~.bXmX|.Z.M.p : T k @ < @ CXIXAX4 [ t.p.m.U.U.S.A.A.j.j.;Xh.;X",
"$.#.>.&.=.5.&X` _ ' p.x.B.U.U.^.[.`.R.m.j.' u t.j.A.s.d.M.'.6X_._._.'.9X.XU.B.a : T k , @ < CXIXPXJ p i.q.m.U.U.S.A.v.3X0XdX3XcX",
"$.#.>.@.-.5.@X_ A ' u.a.m.Z.U.U.^.R.S.a.S & 0 f.j.d.y.d.M.'.9X9X0X0X9X6X[._.D.t.X K k e k   SXIXPX,Xt.i.q.m.E.{.S.A.6XiX7X7XE.rX",
"$.$.>.@.4.&X3.D S D ' u.x.m.Z.U.U.D.b.S $ $ V f.j.y.t.d.M.D.6X0XzXbXNXNX6XR.~.l.+ > k e , % UXIXUX,Xd.q.q.V.7X7XS.qXsX7X7XrXT.rX",
"$.:.%.@.5.&X{ S B Z S _ h.v.m.Z.C.m.f.7 . = V H g.g.F y.M.D.6XqXzXzXHXGXMX'.U.D.w + J U : ,XPXKXFX,Xs.M.w.C.tX7X7XsXeXrX7XrXT.rX",
"#.:.%.=.5.@X{ B g g x c A u.x.m.m.j.V $ o = h V F i i y.F.D.H.6X0XVXNXNXBXnX/._.j.$ p U k.;XxXxX1Xz.F.M.e._.pXtXiXeXrXrXE.E.T.dX",
":.>.+.-.5.@XA 0 7 7 7 1 0 A h.b.#X{ = . + = 7 h h 0 6 t.l.N.H.'.9X0XzXzXNXMX X^.6Xa 5 k.j.y.q.q.I l.D.V.r.(.kXpXtXeXrXrXE.E.T.4X",
";.;.@.4.&Xh.S 0 7 7 = = = 1 v 3.H f o o O * ; 7 7 7 5 Y l.N.H.].|.9X0XzXzX0XyX[._.D.u a y.z.F.N.V.C.N.Z.^..XkXsX7XrXrX{.E.E.T.4X",
";.;.@.4.&Xf.S t x h d - $ $ $ - & # o O O * * - = 7 8 F s.N.G.`.|.9XqX0XVXbXwX`.~._.A.s I s.M.Z.Z.Z.Z.~.(.oXlXsX7XrX{.{.E.E.T.4X",
"%.*.=.7.&X{ S i S H G 7 $ - - $ $ - = * O O O o * = 7 F d.F.C.~.].].].9X0XbXwX|.^.`.R.M.q.q.l.M.V.e.~.|.}.uXlXaXrXrX{.E.E.E.I.4X",
"&.@.-.7.@XD D D ` h.+X0 - 7 d = = > ; = * O o . X - 7 S j.M.Z.G.].].].].9X0X9X|.[.(.^.R.M.d.d.M.M.Z.]..X}.gXlXjX7XrXE.E.W.W.I.2X",
"$.@.2.&X@XF ' ` u.a.h.4 9 v f f f f 7 > = * O o . o = 0 y.l.N.G.G.~.].].6X6X].`.}.[.|.'.6XD.D.D.6X9X8X8X XfXlXaX7X7XE.E.W.W.I.2X",
"$.@.4.&Xf.' ` u.p.b.f.4 V G h h V H V h > % = o . . $ 7 F z.N.Z.G.G.H.'.].].`.`.}.[.|.9X9X0X0XzXzXbXhXfXuXfXmXaX7XE.E.E.W.W.I.5X",
"$.@.5.*X[ ` u.p.v.A.F 0 v 8 h h D f.g.H V 7 = $ O . O % 0 k.M.N.G.G.G.G.~./././.}.[.'.0X0X0XzXMXNXMXmXkXyXfXmXaXE.E.E.W.Y.Y.I.5X",
"#.@.5.@X_ ` u.a.a.j.V V V o > 0 S f.j.h.g.F x 7 $ o o + & F z.M.N.N.Z.G././.C.C.[.[.D.0XnXbXNXNXHXBXnXfXyXkXmXaXE.E.W.Y.Y.Y.n.5X",
"o.=.5.@X_ ` h.i.p.j.t H V o - 7 c h.i.a.j.j.j.H 8 - o @ % 7 U j.l.N.e.Z.G.Z.Z.Z.~.[.V.6XbXMXNXGXGXNXmXyXyXkXmXaXE.E.Y.Y.J.I. .5X",
"=.-.5.h.D ` h.i.b.f.t H V $ - 1 x ' p.a.x.A.A.j.f.H 7 o o % : F j.A.M.N.N.N.M.M.Z._.w.S.aXMXNXGXGXNXmXkXgXkXmXsXW.Y.Y.J.J.I. .5X",
"L L @Xh._ _ ' h.h._ B G b 2 $ 1 g A f.a.x.m.m.m.m.a.Y V :   % & w U z.A.A.z.j.j.m.D.q.m.0XmXNXGXGXBXjXfXfXkXmXsXY.Y.J.J.K.I. .5X",
"d N +X_ D _ [ [ { C B Z Z z 7 - 7 G f.i.x.M.M.B.B.M.A.j.g.8 X o $ & 6 p p 6 4 w i.A.a s.9XhXMXNXNXMXjXfXfXkXmXsXY.P.J.K.K.I. .5X",
"= - 3.) S A A ] ) c Z Z b G J $ 7 v { f.x.x.B.V.V.C.Z.D.S.A.F 4 + % 5 6 4 $     F j.u d.6XpXmXMXMXmXkXgXgXkXmXsXP.J.J.K...X./ 9.",
"# 1 G ) A i C Z n r x Z Z S +X0 # f G f.p.x.B.V.V.Z.~.~.~.Z.S.A.k.j.=Xz.k.F 7 X p j.p y.R.9XjXmXmXjXfXgXfXkXmXiXJ.J.K.K.( X./ 9.",
"o K G C A B t M g x c Z G C f.g.o = V ` p.x.M.B.Z.~.`.`.~.Z.N.N.B.B.D.F.B.m.A.a ^ A.a t.D.'.kXjXjXkXgXgXgXkXnXiXJ.K.K...( X.E 9.",
"v 3.m Z C S Z b 9 b Z M G C ' #XJ . 0 { j.x.m.V.C.`.|.^./.r.Z.e.e.e.Z.C.C.Z.~.C.B.3Xt.a m.'.9XkXkXfXgXgXgXkXnXdXK.K.....( X.~ 9.",
"b n b c Z Z Z c 9 b Z M G c B @X#X4 $ G p.x.M.V._.|.|.`.^.U.Z.Z.r.r.Z.~.~./.^.^.U.6Xs.u s.D.{.uXuXgXgXgXgXkXmXdX( ....../ | R 8.",
"z z n Z G c Z Z r c m c b x x D #XU . f f.x.m.Z.].|.|.|.`.~.C.Z.r.Z._.`.`.`.(.(.(.{.D.u q.S.'.8XuXgXgXgXgXfXnX4X( ..../ / | R 8.",
"r z n N G Z G G r n m Z b x c C g.#XV o F a.x.Z.|.9X.X|.`.~.~.Z.V.~.].|..X X.X[.}.}.9Xq.u v.D.'..XoXuXgXgXfXmX2X( ../ / / | R 8.",
"l z l m Z Z G x r n m Z Z x x Z S #X$X4 4 h.A.B.6X9X|.[.`.`.~.Z.Z.'.9X9XwXfX8X.X}.}.oXZ.u t.m.R.(.}.oXgXgXfXmX2X( X./ / E ! R 8.",
"z z l m b Z G t r c m Z b 9 9 c C ' =X#X$ V j.S.6X|.[.`.`.`./.Z.U.9X0X0XhXkXfX8X X}.}._.q.s x.V.U.(.oXgXoXyXnXW./ / / E ! ! R 8.",
"z z n m c Z G x r b m Z x 9 9 9 C i i.;X$X  F ;X3X'.`.`.^.~././._.9XhXhXhXhXfXgXoX}.XX{.S.u t.m.U.^.}.oX XuXvXI./ | ! ! Q ! R 8.",
"z l z G Z c Z x c m m Z x x z 9 c C F #X,X+X. #X-X'.~.^.^.^.^.~.9XyXhXhXhXkXyX8XoXoXXX}.R.^ u v.V.L.).}. XyXvXI.E ! ! Q Q 1.W 0.",
"z z l Z G Z Z c c m m G b x z r V S C ' ;X1XJ % ;XD.C.~.^.^.^.`.9XpXnXjXkXpXyXyXyX XXX(.[.w.6 a.B.L.).XX XpXvX .E ! Q Q Q 1.W 0.",
"l z r b b Z Z c n m Z Z b x x x 9 G S s i.;X1Xi 6 -XD.Z._.^._.7X0XnXaXjXpXyXyX8X8XuX[.(.(.R.u a B.U.L.XX XsXvX| R Q Q Q ;.1.W 0.",
"z l r m b Z Z t c m m m b v x x x Z A _ ^ j.xXxX5 5 =XD.'.'.6X0XMXnXnXnXpX9X8XyXyX.X|.[.).{.d.u m.U.L.).}.sXvX| Q Q Q ;.;.1.W 0.",
"n l 9 b c Z S t n m Z Z b v x x z c A _ ' ` =XHXDX0 + #X;XxXxXzXcXMXjXkX9X8XyX8X8X[.[.(.(..XD.s w.U./.).}.sX5X~ Q Q ;.;.;.1.W 0.",
"b z 9 z c Z Z c r m Z Z b x z x x c S ) _ ` t.;XKXJXK   5 #X,XxXzXMXhXpX9X9X8X|.|.[.[.(.XX[._.w.w.Z.!.).XXsXvX5.! <.;.;.+.1.W 0.",
"N n f l x Z Z Z n m m c v z z z z x C _ ` u.t.' ,XKXJX<X+   8 U =XqX0X0X9X|.`.`.[.`.^././.}.}.r.w.L.!.).XXsXxX5.=.<.;.+.+.1.W 0.",
"n n 9 9 b Z Z Z c m m c x g g z z b c A ' u.u.u.t.;XKXJXAXK + X 4 p z.6X6X'.~._.'.U.Z.~.^.}. XL.r.L.!.Q.(.jXxXn 4.@.,.+.+.1.3 0.",
"f l 9 9 b Z Z Z m m m c z 9 g x x r Z A ' h.p.p.` t.;XFXKXJXAX$Xw 5 : p y.l.M.N.m.M.M.M.Z..X X).L.!.Q.).}.bX;X& 4.=.&.+.*.1.3 6.",
"l l 9 9 b Z Z c G Z c n z f g v n r c A _ } p.n.p.i.q.=XFXPXPXKXFX1X%Xk.Y I q.q.y.y.y.u I _. X).L.Q.Q.).}.mX%Xo 7.4.&.,.*.1.3 6."
};
